<svg xmlns="http://www.w3.org/2000/svg" xmlns:xlink="http://www.w3.org/1999/xlink" viewBox="0 0 120 120" width="120" height="120" preserveAspectRatio="xMidYMid meet" style="width: 100%; height: 100%; transform: translate3d(0px, 0px, 0px); content-visibility: visible;"><defs><clipPath id="__lottie_element_17"><rect width="120" height="120" x="0" y="0"></rect></clipPath></defs><g clip-path="url(#__lottie_element_17)"><g transform="matrix(1,0,0,1,27.68000030517578,92.66000366210938)" opacity="1" style="display: block;"><g opacity="1" transform="matrix(1,0,0,1,0,0)"><path stroke-linecap="round" stroke-linejoin="round" fill-opacity="0" class="stroke-current" stroke="rgb(0,0,0)" stroke-opacity="1" stroke-width="9" d=" M-8.239999771118164,8.260000228881836 C-8.239999771118164,8.260000228881836 8.239999771118164,-8.260000228881836 8.239999771118164,-8.260000228881836"></path></g></g><g transform="matrix(1,0,0,1,82.11000061035156,38.12999725341797)" opacity="1" style="display: block;"><g opacity="1" transform="matrix(1,0,0,1,0,0)"><path stroke-linecap="butt" stroke-linejoin="miter" fill-opacity="0" stroke-miterlimit="4" class="stroke-current" stroke="rgb(0,0,0)" stroke-opacity="1" stroke-width="9" d=" M6.840000152587891,25.889999389648438 C6.840000152587891,25.889999389648438 -25.889999389648438,-6.840000152587891 -25.889999389648438,-6.840000152587891 C-25.889999389648438,-6.840000152587891 -23.3700008392334,-11.380000114440918 -23.3700008392334,-11.380000114440918 C-19.170000076293945,-18.93000030517578 -17.079999923706055,-22.700000762939453 -14.100000381469727,-24.3700008392334 C-11.489999771118164,-25.829999923706055 -8.420000076293945,-26.260000228881836 -5.510000228881836,-25.579999923706055 C-2.180000066757202,-24.799999237060547 0.8799999952316284,-21.739999771118164 6.989999771118164,-15.630000114440918 C6.989999771118164,-15.630000114440918 15.630000114440918,-6.980000019073486 15.630000114440918,-6.980000019073486 C21.739999771118164,-0.8700000047683716 24.799999237060547,2.180000066757202 25.579999923706055,5.510000228881836 C26.260000228881836,8.420000076293945 25.829999923706055,11.489999771118164 24.3700008392334,14.100000381469727 C22.709999084472656,17.079999923706055 18.93000030517578,19.18000030517578 11.380000114440918,23.3799991607666 C11.380000114440918,23.3799991607666 6.840000152587891,25.889999389648438 6.840000152587891,25.889999389648438z"></path></g></g><g transform="matrix(1,0,0,1,52.54999923706055,67.80999755859375)" opacity="1" style="display: block;"><g opacity="1" transform="matrix(1,0,0,1,0,0)"><path stroke-linecap="butt" stroke-linejoin="miter" fill-opacity="0" stroke-miterlimit="4" class="stroke-current" stroke="rgb(0,0,0)" stroke-opacity="1" stroke-width="9" d=" M35.959999084472656,-3.0999999046325684 C35.959999084472656,-3.0999999046325684 35.959999084472656,12.25 35.959999084472656,12.25 C35.959999084472656,18.43000030517578 35.959999084472656,21.520000457763672 34.79999923706055,23.959999084472656 C33.779998779296875,26.110000610351562 32.13999938964844,27.90999984741211 30.09000015258789,29.1299991607666 C27.760000228881836,30.510000228881836 24.68000030517578,30.799999237060547 18.530000686645508,31.3700008392334 C18.530000686645508,31.3700008392334 -28.780000686645508,35.7400016784668 -28.780000686645508,35.7400016784668 C-31.40999984741211,35.97999954223633 -32.72999954223633,36.099998474121094 -33.709999084472656,35.650001525878906 C-34.56999969482422,35.25 -35.25,34.56999969482422 -35.650001525878906,33.709999084472656 C-36.099998474121094,32.72999954223633 -35.97999954223633,31.40999984741211 -35.7400016784668,28.780000686645508 C-35.7400016784668,28.780000686645508 -31.3700008392334,-18.530000686645508 -31.3700008392334,-18.530000686645508 C-30.799999237060547,-24.68000030517578 -30.510000228881836,-27.760000228881836 -29.1299991607666,-30.09000015258789 C-27.90999984741211,-32.13999938964844 -26.110000610351562,-33.779998779296875 -23.959999084472656,-34.79999923706055 C-21.520000457763672,-35.959999084472656 -18.43000030517578,-35.959999084472656 -12.25,-35.959999084472656 C-12.25,-35.959999084472656 3.0999999046325684,-35.959999084472656 3.0999999046325684,-35.959999084472656"></path></g></g><g transform="matrix(1,0,0,1,60,61.75)" opacity="0.0816000000000372" style="display: none;"><g opacity="1" transform="matrix(1,0,0,1,0,0)"><path stroke-linecap="round" stroke-linejoin="miter" fill-opacity="0" stroke-miterlimit="4" class="stroke-current" stroke="rgb(0,0,0)" stroke-opacity="1" stroke-width="9" d=" M-20.75,53 C-20.75,53 -44.25,53 -44.25,53"></path></g></g></g></svg>
